Coordinates
version=1
nRows=27
nColumns=38
inDegrees=no

Units are S.I. units (second, meters, Newtons, ...)
If the header above contains a line with 'inDegrees', this indicates whether rotational values are in degrees (yes) or radians (no).

endheader
time	pelvis_tilt	pelvis_list	pelvis_rotation	pelvis_tx	pelvis_ty	pelvis_tz	hip_flexion_r	hip_adduction_r	hip_rotation_r	knee_angle_r	ankle_angle_r	subtalar_angle_r	mtp_angle_r	hip_flexion_l	hip_adduction_l	hip_rotation_l	knee_angle_l	ankle_angle_l	subtalar_angle_l	mtp_angle_l	lumbar_extension	lumbar_bending	lumbar_rotation	arm_flex_r	arm_add_r	arm_rot_r	elbow_flex_r	pro_sup_r	wrist_flex_r	wrist_dev_r	arm_flex_l	arm_add_l	arm_rot_l	elbow_flex_l	pro_sup_l	wrist_flex_l	wrist_dev_l
2.52	0.141142	-0.0819181	-0.00199741	0.901468	0.920719	-0.339189	-0.108961	0.0956658	-0.258468	-0.709105	0.537353	0.0999991	-0.0007745	0.401831	-0.0842327	-0.0310987	-1.95258	0.0357624	0.0999991	-0.00241058	-0.408858	0.0526818	0.0974193	-0.204793	-0.542974	-0.240491	1.71698	1.27649	0.00315353	-0.0407649	-0.449531	-0.362968	-0.0739367	1.41202	1.85592	0.0955286	-0.0181185
2.53	0.13048	-0.0544829	0.00470303	0.903774	0.923419	-0.340095	-0.185547	0.0638446	-0.287598	-0.647238	0.502824	0.0999991	-0.0007745	0.475072	-0.0449585	-0.0293626	-1.89533	0.0650474	0.0999991	-0.00241058	-0.387719	0.0241579	0.105207	-0.199832	-0.549343	-0.256147	1.74761	1.27668	0.00315353	-0.0407649	-0.510012	-0.366234	-0.10321	1.44592	1.83403	0.0955286	-0.0181185
2.54	0.118525	-0.0254282	0.00842617	0.906811	0.926615	-0.341067	-0.259356	0.0291796	-0.322422	-0.582454	0.443082	0.0999991	-0.0007745	0.538558	-0.00686466	-0.0362874	-1.81906	0.0921457	0.0999991	-0.00241058	-0.364161	-0.0070206	0.114099	-0.200486	-0.553631	-0.271963	1.78038	1.27833	0.00315353	-0.0407649	-0.571325	-0.368856	-0.132181	1.48569	1.80961	0.0955286	-0.0181185
2.55	0.105728	0.00325841	0.00874259	0.910372	0.930186	-0.342068	-0.327989	-0.00623575	-0.360057	-0.519411	0.360465	0.0999991	-0.0007745	0.590853	0.0274809	-0.0510423	-1.72415	0.118118	0.0999991	-0.00241058	-0.339189	-0.0387833	0.124741	-0.2051	-0.556343	-0.286363	1.81373	1.28164	0.00315353	-0.0407649	-0.631454	-0.369941	-0.160308	1.5278	1.78494	0.0955286	-0.0181185
2.56	0.0926357	0.0297409	0.0057053	0.914188	0.933989	-0.343022	-0.389347	-0.0404584	-0.396829	-0.462787	0.259281	0.0999991	-0.0007745	0.630866	0.0562976	-0.0718929	-1.61103	0.143992	0.0999991	-0.00241058	-0.313951	-0.0690643	0.137322	-0.212049	-0.557767	-0.298243	1.84621	1.28709	0.00315353	-0.0407649	-0.688292	-0.368858	-0.186984	1.56915	1.76175	0.0955286	-0.0181185
2.57	0.0798191	0.0524606	-0.000231021	0.917974	0.937851	-0.343843	-0.441746	-0.0717236	-0.428446	-0.416976	0.145624	0.0999991	-0.0007745	0.657888	0.0786359	-0.0966314	-1.48046	0.170575	0.0999991	-0.00241058	-0.289617	-0.0959784	0.151625	-0.219939	-0.557971	-0.307051	1.87657	1.29527	0.00315353	-0.0407649	-0.739794	-0.365309	-0.211567	1.60727	1.74111	0.0955286	-0.0181185
2.58	0.0678552	0.0702349	-0.00833273	0.921491	0.941595	-0.344459	-0.484063	-0.0984911	-0.450505	-0.385777	0.0270056	0.0999991	-0.0007745	0.671616	0.0943027	-0.123019	-1.33388	0.198287	0.0999991	-0.00241058	-0.267321	-0.117989	0.167094	-0.227721	-0.556885	-0.312703	1.90383	1.30672	0.00315353	-0.0407649	-0.784143	-0.359324	-0.233438	1.64043	1.72354	0.0955286	-0.0181185
2.59	0.0573509	0.0823373	-0.017719	0.924575	0.945059	-0.344822	-0.515852	-0.119556	-0.459361	-0.372196	-0.0882977	0.0999991	-0.0007745	0.672198	0.103725	-0.149138	-1.17383	0.226995	0.0999991	-0.00241058	-0.248156	-0.134057	0.182921	-0.234723	-0.554399	-0.315408	1.92724	1.32164	0.00315353	-0.0407649	-0.819894	-0.351212	-0.25207	1.66775	1.70908	0.0955286	-0.0181185
2.6	0.0489706	0.0885534	-0.0274825	0.927146	0.948129	-0.344917	-0.537371	-0.134155	-0.452791	-0.378285	-0.192234	0.0999991	-0.0007745	0.6603	0.107775	-0.173612	-1.00443	0.255896	0.0999991	-0.00241058	-0.233177	-0.143749	0.198121	-0.240611	-0.550464	-0.315479	1.9463	1.33969	0.00315353	-0.0407649	-0.846086	-0.341483	-0.267085	1.68905	1.69747	0.0955286	-0.0181185
2.61	0.0434097	0.0892135	-0.0367896	0.929164	0.950693	-0.344752	-0.549502	-0.142085	-0.430495	-0.405056	-0.278283	0.0999991	-0.0007745	0.637196	0.107616	-0.195655	-0.831543	0.283444	0.0999991	-0.00241058	-0.223382	-0.147307	0.211628	-0.245327	-0.545145	-0.313204	1.96072	1.35987	0.00315353	-0.0407649	-0.862288	-0.330788	-0.278291	1.70481	1.6883	0.0955286	-0.0181185
2.62	0.0413256	0.0852173	-0.0449447	0.930694	0.952728	-0.344392	-0.553542	-0.143829	-0.394345	-0.452457	-0.342716	0.0999991	-0.0007745	0.604837	0.104579	-0.214938	-0.662665	0.307377	0.0999991	-0.00241058	-0.219604	-0.145645	0.222381	-0.249007	-0.538607	-0.308793	1.97036	1.38066	0.00315353	-0.0407649	-0.86859	-0.319879	-0.285682	1.716	1.68113	0.0955286	-0.0181185
2.63	0.0431953	0.0779566	-0.0514097	0.931793	0.954204	-0.34395	-0.550923	-0.140608	-0.348253	-0.519422	-0.385304	0.0999991	-0.0007745	0.565841	0.100086	-0.231339	-0.506418	0.32492	0.0999991	-0.00241058	-0.222354	-0.140257	0.229398	-0.251914	-0.531058	-0.302397	1.97517	1.40021	0.00315353	-0.0407649	-0.865525	-0.309576	-0.289413	1.72383	1.67553	0.0955286	-0.0181185
2.64	0.0491505	0.0691617	-0.055788	0.932493	0.955093	-0.343566	-0.542904	-0.134291	-0.297551	-0.603973	-0.409042	0.0999991	-0.0007745	0.52337	0.0955674	-0.244671	-0.371641	0.333277	0.0999991	-0.00241058	-0.231651	-0.133026	0.231843	-0.254388	-0.522675	-0.294175	1.97516	1.41672	0.00315353	-0.0407649	-0.853938	-0.300736	-0.289741	1.72957	1.67112	0.0955286	-0.0181185
2.65	0.058847	0.0606735	-0.0577942	0.932773	0.955344	-0.343376	-0.530329	-0.127117	-0.247998	-0.70337	-0.418974	0.0999991	-0.0007745	0.480896	0.0923449	-0.254577	-0.266352	0.330385	0.0999991	-0.00241058	-0.246906	-0.125929	0.229054	-0.256811	-0.513543	-0.284363	1.97035	1.42884	0.00315353	-0.0407649	-0.834823	-0.294199	-0.286959	1.73426	1.66758	0.0955286	-0.0181185
2.66	0.071423	0.0541773	-0.0572198	0.932558	0.954871	-0.343475	-0.513493	-0.121318	-0.204658	-0.814299	-0.420556	0.0999991	-0.0007745	0.441865	0.0914587	-0.260715	-0.196807	0.315828	0.0999991	-0.00241058	-0.266947	-0.120721	0.220593	-0.25958	-0.503636	-0.273315	1.96071	1.4359	0.00315353	-0.0407649	-0.809147	-0.29071	-0.281329	1.73857	1.66466	0.0955286	-0.0181185
2.67	0.0856438	0.0509328	-0.0539324	0.931811	0.953582	-0.343901	-0.49212	-0.11876	-0.171111	-0.93314	-0.418121	0.0999991	-0.0007745	0.409279	0.0935905	-0.262779	-0.166656	0.291458	0.0999991	-0.00241058	-0.290129	-0.118679	0.206263	-0.263064	-0.492836	-0.261483	1.94618	1.438	0.00315353	-0.0407649	-0.777706	-0.290837	-0.273042	1.74264	1.6622	0.0955286	-0.0181185
2.68	0.100068	0.0516404	-0.0479118	0.930541	0.951372	-0.344634	-0.465473	-0.120674	-0.149011	-1.05624	-0.413977	0.0999991	-0.0007745	0.385154	0.0990541	-0.260539	-0.176194	0.261454	0.0999991	-0.00241058	-0.314596	-0.120455	0.186148	-0.26756	-0.480983	-0.249351	1.92669	1.43599	0.00315353	-0.0407649	-0.741024	-0.294888	-0.262206	1.74605	1.66009	0.0955286	-0.0181185
2.69	0.113291	0.0563979	-0.039312	0.928787	0.948205	-0.345619	-0.432544	-0.127525	-0.138042	-1.18011	-0.408356	0.0999991	-0.0007745	0.370036	0.107834	-0.253956	-0.221966	0.231794	0.0999991	-0.00241058	-0.338563	-0.12607	0.160644	-0.273257	-0.467938	-0.237331	1.9022	1.43114	0.00315353	-0.0407649	-0.699331	-0.302861	-0.248869	1.74798	1.65833	0.0955286	-0.0181185
2.7	0.124191	0.0647566	-0.0285231	0.926624	0.944143	-0.346765	-0.392304	-0.139021	-0.136227	-1.30161	-0.40004	0.0999991	-0.0007745	0.362826	0.119612	-0.243115	-0.297094	0.209334	0.0999991	-0.00241058	-0.360576	-0.134998	0.130482	-0.280229	-0.453645	-0.225681	1.87278	1.42489	0.00315353	-0.0407649	-0.65262	-0.314422	-0.233072	1.74728	1.65704	0.0955286	-0.0181185
2.71	0.132115	0.0758376	-0.0162072	0.924162	0.93945	-0.34795	-0.34396	-0.154247	-0.140527	-1.4179	-0.387264	0.0999991	-0.0007745	0.360995	0.133736	-0.228379	-0.392378	0.20061	0.0999991	-0.00241058	-0.379696	-0.146331	0.0967083	-0.288462	-0.438174	-0.214457	1.83872	1.41847	0.00315353	-0.0407649	-0.600791	-0.328928	-0.214917	1.74286	1.65645	0.0955286	-0.0181185
2.72	0.137023	0.0884575	-0.00328457	0.921515	0.934574	-0.349017	-0.287198	-0.171856	-0.147515	-1.52646	-0.368514	0.0999991	-0.0007745	0.36095	0.149216	-0.210528	-0.497536	0.210381	0.0999991	-0.00241058	-0.395575	-0.158951	0.0606343	-0.297917	-0.421742	-0.203541	1.80069	1.41263	0.00315353	-0.0407649	-0.543837	-0.345492	-0.194649	1.73396	1.65684	0.0955286	-0.0181185
2.73	0.139405	0.101322	0.00913302	0.918739	0.929951	-0.349817	-0.22238	-0.190238	-0.154017	-1.62502	-0.343001	0.0999991	-0.0007745	0.358437	0.164767	-0.190766	-0.602293	0.240332	0.0999991	-0.00241058	-0.408461	-0.171666	0.0237376	-0.308602	-0.404703	-0.192737	1.7598	1.4075	0.00315353	-0.0407649	-0.482057	-0.363074	-0.172752	1.72048	1.6585	0.0955286	-0.0181185
2.74	0.140175	0.11314	0.0198972	0.915843	0.925854	-0.350278	-0.150585	-0.207673	-0.157605	-1.71147	-0.310787	0.0999991	-0.0007745	0.349099	0.178965	-0.170428	-0.697335	0.288562	0.0999991	-0.00241058	-0.419021	-0.183318	-0.0124906	-0.320635	-0.387524	-0.181902	1.71763	1.40253	0.00315353	-0.0407649	-0.416232	-0.380577	-0.150009	1.70324	1.66163	0.0955286	-0.0181185
2.75	0.140396	0.122715	0.0280248	0.912862	0.922455	-0.350445	-0.0735051	-0.222454	-0.156912	-1.7839	-0.272717	0.0999991	-0.0007745	0.329148	0.190374	-0.150815	-0.775155	0.350115	0.0999991	-0.00241058	-0.42806	-0.192828	-0.0467201	-0.334291	-0.370732	-0.17108	1.67617	1.3967	0.00315353	-0.0407649	-0.347735	-0.39693	-0.127518	1.68402	1.6663	0.0955286	-0.0181185
2.76	0.140966	0.129038	0.0328917	0.909897	0.919944	-0.350378	0.00679718	-0.232992	-0.151737	-1.84062	-0.230297	0.0999991	-0.0007745	0.296019	0.197693	-0.133116	-0.830641	0.418219	0.0999991	-0.00241058	-0.436163	-0.199199	-0.077951	-0.349997	-0.354864	-0.160571	1.63761	1.3889	0.00315353	-0.0407649	-0.278522	-0.411149	-0.106634	1.66537	1.67239	0.0955286	-0.0181185
2.77	0.142341	0.131278	0.0343762	0.907114	0.918503	-0.350079	0.0881684	-0.237989	-0.14297	-1.88022	-0.185466	0.0999991	-0.0007745	0.248773	0.199892	-0.11842	-0.861262	0.485576	0.0999991	-0.00241058	-0.443422	-0.201567	-0.10563	-0.368292	-0.340419	-0.15091	1.6041	1.37832	0.00315353	-0.0407649	-0.210986	-0.42239	-0.0888014	1.65025	1.67964	0.0955286	-0.0181185
2.78	0.144406	0.128854	0.0328569	0.904712	0.918223	-0.349582	0.168598	-0.236589	-0.132342	-1.90166	-0.140308	0.0999991	-0.0007745	0.188167	0.196296	-0.107844	-0.866882	0.545371	0.0999991	-0.00241058	-0.44934	-0.199254	-0.129673	-0.389725	-0.327814	-0.142753	1.57742	1.36487	0.00315353	-0.0407649	-0.147693	-0.430027	-0.0753227	1.64149	1.68769	0.0955286	-0.0181185
